# xmcd
#
# Track frame offsets:
#	225
#	17512
#	33637
#	57205
#	75374
#	89511
#
# Disc length: 1498 seconds
#
# Revision: 0
# Processed by: cddbd v1.4PL0 Copyright (c) Steve Scherf et al.
# Submitted via: dBpowerAMP V4.0
#
DISCID=3d05d706
DTITLE=hkb - goldenboy
DYEAR=1900
DGENRE=
TTITLE0=cvc
TTITLE1=cc
TTITLE2=cvcc
TTITLE3=ssss
TTITLE4=dddd
TTITLE5=wwww
EXTD=
EXTT0=
EXTT1=
EXTT2=
EXTT3=
EXTT4=
EXTT5=
PLAYORDER=
